<svg width="32" height="32" viewBox="0 0 32 32" fill="none" xmlns="http://www.w3.org/2000/svg">
<path d="M8.68417 11.6899H10.7065V9.66419C10.7065 9.09374 10.511 8.61174 10.1198 8.21819C9.72851 7.82463 9.24751 7.62785 8.67684 7.62785C8.10617 7.62785 7.62484 7.82574 7.23284 8.22152C6.84062 8.6173 6.64451 9.09819 6.64451 9.66419C6.64451 10.2302 6.83839 10.7093 7.22617 11.1015C7.61395 11.4937 8.09995 11.6899 8.68417 11.6899ZM14.2678 11.6899C14.8416 11.6899 15.3224 11.4931 15.7102 11.0995C16.0979 10.7062 16.2918 10.2282 16.2918 9.66552C16.2918 9.10308 16.0963 8.62285 15.7052 8.22485C15.3141 7.82685 14.8332 7.62785 14.2625 7.62785C13.6918 7.62785 13.2104 7.82341 12.8182 8.21452C12.426 8.60541 12.2298 9.08685 12.2298 9.65885V11.6899H14.2678ZM14.8355 28.5095C14.1335 28.5095 13.4675 28.3704 12.8375 28.0922C12.2073 27.814 11.6867 27.3989 11.2758 26.8469L4.57617 18.1415L5.13684 17.5512C5.37862 17.2872 5.67573 17.1221 6.02817 17.0559C6.38039 16.9896 6.72328 17.0355 7.05684 17.1935L10.7065 19.0005V13.2859H8.68417C7.66551 13.2859 6.80484 12.934 6.10217 12.2302C5.39973 11.5262 5.04851 10.6714 5.04851 9.66586C5.04851 8.66052 5.39973 7.80352 6.10217 7.09485C6.80484 6.38597 7.66551 6.03152 8.68417 6.03152C9.05773 6.03152 9.41439 6.09174 9.75417 6.21219C10.0939 6.33241 10.4114 6.50119 10.7065 6.71852V4.28686C10.7065 4.07152 10.7845 3.8853 10.9405 3.72819C11.0967 3.57085 11.2861 3.49219 11.5085 3.49219C11.7307 3.49219 11.92 3.5703 12.0762 3.72652C12.2322 3.88274 12.3102 4.06774 12.3102 4.28152V6.64285C12.5904 6.45508 12.8938 6.3063 13.2205 6.19652C13.547 6.08652 13.8912 6.03152 14.2532 6.03152C15.2627 6.03152 16.1209 6.38474 16.8278 7.09119C17.5347 7.79741 17.8882 8.65497 17.8882 9.66386C17.8882 10.673 17.5364 11.5289 16.8328 12.2315C16.1291 12.9344 15.2747 13.2859 14.2698 13.2859H12.3102V21.5652L7.35484 19.1272L12.6068 25.8995C12.8673 26.2546 13.195 26.5123 13.5898 26.6725C13.9847 26.833 14.4 26.9132 14.8355 26.9132H21.0388C21.9257 26.9132 22.6817 26.6032 23.3068 25.9832C23.9322 25.3632 24.2448 24.603 24.2448 23.7025V18.5629C24.2448 18.0231 24.0612 17.5699 23.6938 17.2032C23.3263 16.8367 22.8793 16.6535 22.3528 16.6535H15.4108V15.0572H22.3482C23.3077 15.0572 24.1297 15.3981 24.8142 16.0799C25.4988 16.7614 25.8412 17.5891 25.8412 18.5629V23.7025C25.8412 25.0439 25.3725 26.1803 24.4352 27.1119C23.4978 28.0436 22.3657 28.5095 21.0388 28.5095H14.8355Z" fill="#57ABFF"/>
</svg>
