<svg width="32" height="32" viewBox="0 0 32 32" fill="none" xmlns="http://www.w3.org/2000/svg">
<path d="M8.24318 29.5616L3.60352 24.9219L8.24318 20.3116L9.54818 21.6259L7.19452 23.9926H24.8138L22.4635 21.6259L23.7878 20.3116L28.3982 24.9219L23.7648 29.5616L22.4598 28.2476L24.8368 25.8579H7.16485L9.53818 28.2476L8.24318 29.5616ZM16.0058 13.9926C15.1247 13.9926 14.3823 13.6896 13.7785 13.0836C13.1747 12.4776 12.8728 11.734 12.8728 10.8529C12.8728 9.97156 13.1772 9.23067 13.7858 8.63023C14.3945 8.02978 15.1385 7.72956 16.0178 7.72956C16.8881 7.72956 17.6252 8.0319 18.2292 8.63656C18.8334 9.24123 19.1355 9.98034 19.1355 10.8539C19.1355 11.7275 18.8342 12.4689 18.2315 13.0782C17.6291 13.6878 16.8872 13.9926 16.0058 13.9926ZM7.22518 18.1206C6.59718 18.1206 6.06096 17.8983 5.61652 17.4539C5.17185 17.0092 4.94952 16.4729 4.94952 15.8449V5.87723C4.94952 5.24923 5.17185 4.7129 5.61652 4.26823C6.06096 3.82378 6.59718 3.60156 7.22518 3.60156H24.7892C25.4172 3.60156 25.9535 3.82378 26.3982 4.26823C26.8426 4.7129 27.0648 5.24923 27.0648 5.87723V15.8449C27.0648 16.4729 26.8426 17.0092 26.3982 17.4539C25.9535 17.8983 25.4172 18.1206 24.7892 18.1206H7.22518ZM9.14452 16.2552H22.8702C22.8702 15.6014 23.0977 15.0453 23.5528 14.5869C24.008 14.1282 24.5568 13.8989 25.1995 13.8989V7.82323C24.5526 7.82323 24.0026 7.59401 23.5495 7.13556C23.0966 6.67689 22.8702 6.12067 22.8702 5.46689H9.14452C9.14452 6.12067 8.91696 6.67689 8.46185 7.13556C8.00674 7.59401 7.45774 7.82323 6.81485 7.82323V13.8989C7.46196 13.8989 8.01196 14.1282 8.46485 14.5869C8.91796 15.0453 9.14452 15.6014 9.14452 16.2552Z" fill="#57ABFF"/>
</svg>
