<svg width="32" height="32" viewBox="0 0 32 32" fill="none" xmlns="http://www.w3.org/2000/svg">
<path d="M16.0005 28.202C15.708 28.202 15.4274 28.1462 15.1585 28.0346C14.8896 27.9231 14.6403 27.7557 14.4105 27.5326L4.46816 17.5903C4.24505 17.3605 4.07772 17.1112 3.96616 16.8423C3.85461 16.5736 3.79883 16.2931 3.79883 16.0006C3.79883 15.7084 3.85461 15.425 3.96616 15.1503C4.07772 14.8756 4.24505 14.6271 4.46816 14.4046L14.4092 4.4633C14.6398 4.23263 14.8896 4.0633 15.1585 3.9553C15.4272 3.84708 15.7077 3.79297 16.0002 3.79297C16.2924 3.79297 16.5757 3.84708 16.8502 3.9553C17.1246 4.0633 17.3733 4.2323 17.5962 4.4623L27.5385 14.4046C27.7685 14.6275 27.9375 14.8762 28.0455 15.1506C28.1537 15.4249 28.2078 15.7082 28.2078 16.0006C28.2078 16.2929 28.1537 16.5734 28.0455 16.8423C27.9375 17.1112 27.7682 17.361 27.5375 17.5916L17.5962 27.5326C17.3739 27.7557 17.1256 27.9231 16.8512 28.0346C16.5767 28.1462 16.2932 28.202 16.0005 28.202ZM10.7375 21.2633L15.7182 26.2506C15.7951 26.3275 15.889 26.366 16.0002 26.366C16.1113 26.366 16.2053 26.3275 16.2822 26.2506L26.2502 16.2826C26.327 16.2057 26.3655 16.1117 26.3655 16.0006C26.3655 15.8895 26.327 15.7955 26.2502 15.7186L16.2822 5.75063C16.2053 5.67375 16.1113 5.6353 16.0002 5.6353C15.889 5.6353 15.7951 5.67375 15.7182 5.75063L5.75016 15.7186C5.67327 15.7955 5.63483 15.8895 5.63483 16.0006C5.63483 16.1117 5.67327 16.2057 5.75016 16.2826L10.7375 21.2633ZM15.9732 22.071L22.0438 16.0006L15.9732 9.9303L14.6488 11.2546L18.4515 15.0646H9.90283V16.93H18.4515L14.6488 20.7466L15.9732 22.071Z" fill="#57ABFF"/>
</svg>
