<svg width="32" height="32" viewBox="0 0 32 32" fill="none" xmlns="http://www.w3.org/2000/svg">
<path d="M15.1623 19.6157H16.8377V16.8774H19.5673V15.202H16.8377V12.4724H15.1623V15.202H12.4327V16.8774H15.1623V19.6157ZM6 25.178V23.503H8.41033V13.1664C8.41033 11.365 8.96 9.76325 10.0593 8.36103C11.1589 6.95881 12.5836 6.08048 14.3333 5.72603V4.9987C14.3333 4.53581 14.4952 4.14225 14.819 3.81803C15.1428 3.49403 15.5359 3.33203 15.9983 3.33203C16.461 3.33203 16.8547 3.49403 17.1793 3.81803C17.5042 4.14225 17.6667 4.53581 17.6667 4.9987V5.72603C19.4164 6.08048 20.8411 6.95881 21.9407 8.36103C23.04 9.76325 23.5897 11.365 23.5897 13.1664V23.503H26V25.178H6ZM15.9977 28.9217C15.3343 28.9217 14.7672 28.6857 14.2963 28.2137C13.8252 27.7417 13.5897 27.1743 13.5897 26.5114H18.4103C18.4103 27.1765 18.1741 27.7445 17.7017 28.2154C17.2292 28.6863 16.6612 28.9217 15.9977 28.9217ZM10.0853 23.503H21.9147V13.1664C21.9147 11.5293 21.3381 10.1341 20.185 8.98103C19.0321 7.82814 17.6371 7.2517 16 7.2517C14.3629 7.2517 12.9679 7.82814 11.815 8.98103C10.6619 10.1341 10.0853 11.5293 10.0853 13.1664V23.503Z" fill="#57ABFF"/>
</svg>
