<svg width="25" height="26" viewBox="0 0 25 26" fill="none" xmlns="http://www.w3.org/2000/svg">
<path d="M4.63967 25.96L0 21.3203L4.63967 16.71L5.94467 18.0243L3.591 20.391H21.2103L18.86 18.0243L20.1843 16.71L24.7947 21.3203L20.1613 25.96L18.8563 24.646L21.2333 22.2563H3.56133L5.93467 24.646L4.63967 25.96ZM12.4023 10.391C11.5212 10.391 10.7788 10.088 10.175 9.482C9.57122 8.876 9.26933 8.13244 9.26933 7.25133C9.26933 6.37 9.57366 5.62911 10.1823 5.02867C10.791 4.42822 11.535 4.128 12.4143 4.128C13.2846 4.128 14.0217 4.43033 14.6257 5.035C15.2299 5.63967 15.532 6.37878 15.532 7.25233C15.532 8.12589 15.2307 8.86733 14.628 9.47667C14.0256 10.0862 13.2837 10.391 12.4023 10.391ZM3.62167 14.519C2.99367 14.519 2.45744 14.2968 2.013 13.8523C1.56833 13.4077 1.346 12.8713 1.346 12.2433V2.27567C1.346 1.64767 1.56833 1.11133 2.013 0.666667C2.45744 0.222222 2.99367 0 3.62167 0H21.1857C21.8137 0 22.35 0.222222 22.7947 0.666667C23.2391 1.11133 23.4613 1.64767 23.4613 2.27567V12.2433C23.4613 12.8713 23.2391 13.4077 22.7947 13.8523C22.35 14.2968 21.8137 14.519 21.1857 14.519H3.62167ZM5.541 12.6537H19.2667C19.2667 11.9999 19.4942 11.4438 19.9493 10.9853C20.4044 10.5267 20.9533 10.2973 21.596 10.2973V4.22167C20.9491 4.22167 20.3991 3.99244 19.946 3.534C19.4931 3.07533 19.2667 2.51911 19.2667 1.86533H5.541C5.541 2.51911 5.31344 3.07533 4.85833 3.534C4.40322 3.99244 3.85422 4.22167 3.21133 4.22167V10.2973C3.85844 10.2973 4.40844 10.5267 4.86133 10.9853C5.31444 11.4438 5.541 11.9999 5.541 12.6537Z" fill="#57ABFF"/>
</svg>
