<svg width="27" height="24" viewBox="0 0 27 24" fill="none" xmlns="http://www.w3.org/2000/svg">
<path d="M2.66667 24C1.93333 24 1.30556 23.7389 0.783333 23.2167C0.261111 22.6944 0 22.0667 0 21.3333V2.66667C0 1.93333 0.261111 1.30556 0.783333 0.783333C1.30556 0.261111 1.93333 0 2.66667 0H24C24.7333 0 25.3611 0.261111 25.8833 0.783333C26.4056 1.30556 26.6667 1.93333 26.6667 2.66667V21.3333C26.6667 22.0667 26.4056 22.6944 25.8833 23.2167C25.3611 23.7389 24.7333 24 24 24H2.66667ZM2.66667 21.3333H24V2.66667H2.66667V21.3333ZM4 18.6667H10.6667V16H4V18.6667ZM16.7333 16L23.3333 9.4L21.4333 7.5L16.7333 12.2333L14.8333 10.3333L12.9667 12.2333L16.7333 16ZM4 13.3333H10.6667V10.6667H4V13.3333ZM4 8H10.6667V5.33333H4V8Z" fill="#57ABFF"/>
</svg>
