<svg width="30" height="16" viewBox="0 0 30 16" fill="none" xmlns="http://www.w3.org/2000/svg">
<path d="M8.66667 16C7.2 16 5.94444 15.4778 4.9 14.4333C3.85556 13.3889 3.33333 12.1333 3.33333 10.6667V5.23333C3.33333 4.1 3.68889 3.10556 4.4 2.25C5.11111 1.39444 6.02222 0.866667 7.13333 0.666667C8.4 0.422222 9.65556 0.25 10.9 0.15C12.1444 0.05 13.4 0 14.6667 0C15.9333 0 17.1944 0.05 18.45 0.15C19.7056 0.25 20.9556 0.422222 22.2 0.666667C23.3111 0.888889 24.2222 1.42222 24.9333 2.26667C25.6444 3.11111 26 4.1 26 5.23333V10.6667C26 12.1333 25.4778 13.3889 24.4333 14.4333C23.3889 15.4778 22.1333 16 20.6667 16H19.3333C19.0444 16 18.7556 15.9833 18.4667 15.95C18.1778 15.9167 17.9 15.8444 17.6333 15.7333L15.5 15C15.2333 14.8889 14.9556 14.8333 14.6667 14.8333C14.3778 14.8333 14.1 14.8889 13.8333 15L11.7 15.7333C11.4333 15.8444 11.1556 15.9167 10.8667 15.95C10.5778 15.9833 10.2889 16 10 16H8.66667ZM8.66667 13.3333H10C10.1556 13.3333 10.3056 13.3222 10.45 13.3C10.5944 13.2778 10.7333 13.2444 10.8667 13.2C11.5111 13 12.1389 12.7889 12.75 12.5667C13.3611 12.3444 14 12.2333 14.6667 12.2333C15.3333 12.2333 15.9778 12.3389 16.6 12.55C17.2222 12.7611 17.8444 12.9778 18.4667 13.2C18.6 13.2444 18.7389 13.2778 18.8833 13.3C19.0278 13.3222 19.1778 13.3333 19.3333 13.3333H20.6667C21.4 13.3333 22.0278 13.0722 22.55 12.55C23.0722 12.0278 23.3333 11.4 23.3333 10.6667V5.23333C23.3333 4.74444 23.1778 4.32222 22.8667 3.96667C22.5556 3.61111 22.1667 3.37778 21.7 3.26667C20.5444 3.02222 19.3833 2.86111 18.2167 2.78333C17.05 2.70556 15.8667 2.66667 14.6667 2.66667C13.4667 2.66667 12.2889 2.71111 11.1333 2.8C9.97778 2.88889 8.81111 3.04444 7.63333 3.26667C7.16667 3.35556 6.77778 3.58333 6.46667 3.95C6.15556 4.31667 6 4.74444 6 5.23333V10.6667C6 11.4 6.26111 12.0278 6.78333 12.55C7.30556 13.0722 7.93333 13.3333 8.66667 13.3333ZM0 10.6667V5.33333H2V10.6667H0ZM27.3333 10.6667V5.33333H29.3333V10.6667H27.3333Z" fill="#57ABFF"/>
</svg>
