<svg width="27" height="26" viewBox="0 0 27 26" fill="none" xmlns="http://www.w3.org/2000/svg">
<path d="M4.01518 25.3333C2.68185 25.3333 1.62074 24.8167 0.831848 23.7833C0.0429593 22.75 -0.184819 21.6 0.148515 20.3333L2.54851 11.2667C1.81518 10.8 1.20963 10.1667 0.731848 9.36667C0.25407 8.56667 0.0151815 7.66667 0.0151815 6.66667C0.0151815 5.2 0.537404 3.94444 1.58185 2.9C2.62629 1.85556 3.88185 1.33333 5.34852 1.33333H16.0152C17.0152 1.33333 17.7707 1.75556 18.2818 2.6C18.793 3.44444 18.8263 4.31111 18.3818 5.2L15.7152 10.5333C15.4707 10.9778 15.143 11.3333 14.7318 11.6C14.3207 11.8667 13.8596 12 13.3485 12H10.6485L10.2818 13.3333H10.6818C11.0596 13.3333 11.3763 13.4611 11.6318 13.7167C11.8874 13.9722 12.0152 14.2889 12.0152 14.6667V17.3333C12.0152 17.7111 11.8874 18.0278 11.6318 18.2833C11.3763 18.5389 11.0596 18.6667 10.6818 18.6667H8.88185L7.88185 22.4C7.6374 23.2667 7.15963 23.9722 6.44851 24.5167C5.7374 25.0611 4.92629 25.3333 4.01518 25.3333ZM4.01518 22.6667C4.32629 22.6667 4.59296 22.5778 4.81518 22.4C5.0374 22.2222 5.19296 21.9889 5.28185 21.7L7.88185 12H5.11518L2.71518 21C2.60407 21.4222 2.68185 21.8056 2.94851 22.15C3.21518 22.4944 3.57074 22.6667 4.01518 22.6667ZM5.34852 9.33333H13.3485L16.0152 4H5.34852C4.61518 4 3.9874 4.26111 3.46518 4.78333C2.94296 5.30556 2.68185 5.93333 2.68185 6.66667C2.68185 7.4 2.94296 8.02778 3.46518 8.55C3.9874 9.07222 4.61518 9.33333 5.34852 9.33333ZM21.3485 4L20.5152 2.2L25.3485 0L26.1485 1.83333L21.3485 4ZM25.3485 13.3333L20.5152 11.1667L21.3485 9.33333L26.1485 11.5333L25.3485 13.3333ZM21.3485 7.66667V5.66667H26.6819V7.66667H21.3485Z" fill="#57ABFF"/>
</svg>
