<svg width="29" height="29" viewBox="0 0 29 29" fill="none" xmlns="http://www.w3.org/2000/svg">
<path d="M26.8 28.6667L22.7 24.6C22.3 24.8444 21.8722 25.0278 21.4167 25.15C20.9611 25.2722 20.4889 25.3333 20 25.3333C18.5333 25.3333 17.2778 24.8111 16.2333 23.7667C15.1889 22.7222 14.6667 21.4667 14.6667 20C14.6667 18.5333 15.1889 17.2778 16.2333 16.2333C17.2778 15.1889 18.5333 14.6667 20 14.6667C21.4667 14.6667 22.7222 15.1889 23.7667 16.2333C24.8111 17.2778 25.3333 18.5333 25.3333 20C25.3333 20.5111 25.2667 20.9944 25.1333 21.45C25 21.9056 24.8111 22.3333 24.5667 22.7333L28.6667 26.8L26.8 28.6667ZM5.33333 25.3333C3.86667 25.3333 2.61111 24.8111 1.56667 23.7667C0.522222 22.7222 0 21.4667 0 20C0 18.5333 0.522222 17.2778 1.56667 16.2333C2.61111 15.1889 3.86667 14.6667 5.33333 14.6667C6.8 14.6667 8.05556 15.1889 9.1 16.2333C10.1444 17.2778 10.6667 18.5333 10.6667 20C10.6667 21.4667 10.1444 22.7222 9.1 23.7667C8.05556 24.8111 6.8 25.3333 5.33333 25.3333ZM5.33333 22.6667C6.06667 22.6667 6.69444 22.4056 7.21667 21.8833C7.73889 21.3611 8 20.7333 8 20C8 19.2667 7.73889 18.6389 7.21667 18.1167C6.69444 17.5944 6.06667 17.3333 5.33333 17.3333C4.6 17.3333 3.97222 17.5944 3.45 18.1167C2.92778 18.6389 2.66667 19.2667 2.66667 20C2.66667 20.7333 2.92778 21.3611 3.45 21.8833C3.97222 22.4056 4.6 22.6667 5.33333 22.6667ZM20 22.6667C20.7333 22.6667 21.3611 22.4056 21.8833 21.8833C22.4056 21.3611 22.6667 20.7333 22.6667 20C22.6667 19.2667 22.4056 18.6389 21.8833 18.1167C21.3611 17.5944 20.7333 17.3333 20 17.3333C19.2667 17.3333 18.6389 17.5944 18.1167 18.1167C17.5944 18.6389 17.3333 19.2667 17.3333 20C17.3333 20.7333 17.5944 21.3611 18.1167 21.8833C18.6389 22.4056 19.2667 22.6667 20 22.6667ZM5.33333 10.6667C3.86667 10.6667 2.61111 10.1444 1.56667 9.1C0.522222 8.05556 0 6.8 0 5.33333C0 3.86667 0.522222 2.61111 1.56667 1.56667C2.61111 0.522222 3.86667 0 5.33333 0C6.8 0 8.05556 0.522222 9.1 1.56667C10.1444 2.61111 10.6667 3.86667 10.6667 5.33333C10.6667 6.8 10.1444 8.05556 9.1 9.1C8.05556 10.1444 6.8 10.6667 5.33333 10.6667ZM20 10.6667C18.5333 10.6667 17.2778 10.1444 16.2333 9.1C15.1889 8.05556 14.6667 6.8 14.6667 5.33333C14.6667 3.86667 15.1889 2.61111 16.2333 1.56667C17.2778 0.522222 18.5333 0 20 0C21.4667 0 22.7222 0.522222 23.7667 1.56667C24.8111 2.61111 25.3333 3.86667 25.3333 5.33333C25.3333 6.8 24.8111 8.05556 23.7667 9.1C22.7222 10.1444 21.4667 10.6667 20 10.6667ZM5.33333 8C6.06667 8 6.69444 7.73889 7.21667 7.21667C7.73889 6.69444 8 6.06667 8 5.33333C8 4.6 7.73889 3.97222 7.21667 3.45C6.69444 2.92778 6.06667 2.66667 5.33333 2.66667C4.6 2.66667 3.97222 2.92778 3.45 3.45C2.92778 3.97222 2.66667 4.6 2.66667 5.33333C2.66667 6.06667 2.92778 6.69444 3.45 7.21667C3.97222 7.73889 4.6 8 5.33333 8ZM20 8C20.7333 8 21.3611 7.73889 21.8833 7.21667C22.4056 6.69444 22.6667 6.06667 22.6667 5.33333C22.6667 4.6 22.4056 3.97222 21.8833 3.45C21.3611 2.92778 20.7333 2.66667 20 2.66667C19.2667 2.66667 18.6389 2.92778 18.1167 3.45C17.5944 3.97222 17.3333 4.6 17.3333 5.33333C17.3333 6.06667 17.5944 6.69444 18.1167 7.21667C18.6389 7.73889 19.2667 8 20 8Z" fill="#57ABFF"/>
</svg>
