<svg width="26" height="23" viewBox="0 0 26 23" fill="none" xmlns="http://www.w3.org/2000/svg">
<path d="M17.4757 22.382C16.9299 22.382 16.4653 22.1902 16.082 21.8067C15.6984 21.4231 15.5067 20.9584 15.5067 20.4127V14.823C15.5067 14.291 15.6984 13.8328 16.082 13.4483C16.4653 13.0637 16.9299 12.8713 17.4757 12.8713H23.0657C23.5977 12.8713 24.0559 13.0637 24.4403 13.4483C24.825 13.8328 25.0173 14.291 25.0173 14.823V20.4127C25.0173 20.9584 24.825 21.4231 24.4403 21.8067C24.0559 22.1902 23.5977 22.382 23.0657 22.382H17.4757ZM17.1027 20.786H23.421V14.4673H17.1027V20.786ZM0 18.4247V16.8287H11.3293V18.4247H0ZM17.4757 9.51067C16.9299 9.51067 16.4653 9.31889 16.082 8.93533C15.6984 8.55178 15.5067 8.08711 15.5067 7.54133V1.95167C15.5067 1.41967 15.6984 0.961444 16.082 0.577C16.4653 0.192333 16.9299 0 17.4757 0H23.0657C23.5977 0 24.0559 0.192333 24.4403 0.577C24.825 0.961444 25.0173 1.41967 25.0173 1.95167V7.54133C25.0173 8.08711 24.825 8.55178 24.4403 8.93533C24.0559 9.31889 23.5977 9.51067 23.0657 9.51067H17.4757ZM17.1027 7.91467H23.421V1.596H17.1027V7.91467ZM0 5.55333V3.95733H11.3293V5.55333H0Z" fill="#57ABFF"/>
</svg>
