<svg width="20" height="26" viewBox="0 0 20 26" fill="none" xmlns="http://www.w3.org/2000/svg">
<path d="M9.16233 16.2837H10.8377V13.5453H13.5673V11.87H10.8377V9.14033H9.16233V11.87H6.43267V13.5453H9.16233V16.2837ZM0 21.846V20.171H2.41033V9.83433C2.41033 8.033 2.96 6.43122 4.05933 5.029C5.15889 3.62678 6.58356 2.74844 8.33333 2.394V1.66667C8.33333 1.20378 8.49522 0.810223 8.819 0.486001C9.14278 0.162001 9.53589 0 9.99833 0C10.461 0 10.8547 0.162001 11.1793 0.486001C11.5042 0.810223 11.6667 1.20378 11.6667 1.66667V2.394C13.4164 2.74844 14.8411 3.62678 15.9407 5.029C17.04 6.43122 17.5897 8.033 17.5897 9.83433V20.171H20V21.846H0ZM9.99767 25.5897C9.33433 25.5897 8.76722 25.3537 8.29633 24.8817C7.82522 24.4097 7.58967 23.8422 7.58967 23.1793H12.4103C12.4103 23.8444 12.1741 24.4124 11.7017 24.8833C11.2292 25.3542 10.6612 25.5897 9.99767 25.5897ZM4.08533 20.171H15.9147V9.83433C15.9147 8.19722 15.3381 6.80211 14.185 5.649C13.0321 4.49611 11.6371 3.91967 10 3.91967C8.36289 3.91967 6.96789 4.49611 5.815 5.649C4.66189 6.80211 4.08533 8.19722 4.08533 9.83433V20.171Z" fill="#57ABFF"/>
</svg>
