<svg width="25" height="25" viewBox="0 0 25 25" fill="none" xmlns="http://www.w3.org/2000/svg">
<path d="M12.2017 24.409C11.9092 24.409 11.6286 24.3532 11.3597 24.2417C11.0908 24.1301 10.8414 23.9628 10.6117 23.7397L0.669333 13.7973C0.446222 13.5676 0.278889 13.3182 0.167333 13.0493C0.0557779 12.7807 0 12.5001 0 12.2077C0 11.9154 0.0557779 11.632 0.167333 11.3573C0.278889 11.0827 0.446222 10.8341 0.669333 10.6117L10.6103 0.670333C10.841 0.439666 11.0908 0.270333 11.3597 0.162333C11.6283 0.0541109 11.9089 0 12.2013 0C12.4936 0 12.7769 0.0541109 13.0513 0.162333C13.3258 0.270333 13.5744 0.439332 13.7973 0.669332L23.7397 10.6117C23.9697 10.8346 24.1387 11.0832 24.2467 11.3577C24.3549 11.6319 24.409 11.9152 24.409 12.2077C24.409 12.4999 24.3549 12.7804 24.2467 13.0493C24.1387 13.3182 23.9693 13.568 23.7387 13.7987L13.7973 23.7397C13.5751 23.9628 13.3268 24.1301 13.0523 24.2417C12.7779 24.3532 12.4943 24.409 12.2017 24.409ZM6.93867 17.4703L11.9193 22.4577C11.9962 22.5346 12.0902 22.573 12.2013 22.573C12.3124 22.573 12.4064 22.5346 12.4833 22.4577L22.4513 12.4897C22.5282 12.4128 22.5667 12.3188 22.5667 12.2077C22.5667 12.0966 22.5282 12.0026 22.4513 11.9257L12.4833 1.95767C12.4064 1.88078 12.3124 1.84233 12.2013 1.84233C12.0902 1.84233 11.9962 1.88078 11.9193 1.95767L1.95133 11.9257C1.87444 12.0026 1.836 12.0966 1.836 12.2077C1.836 12.3188 1.87444 12.4128 1.95133 12.4897L6.93867 17.4703ZM12.1743 18.278L18.245 12.2077L12.1743 6.13733L10.85 7.46167L14.6527 11.2717H6.104V13.137H14.6527L10.85 16.9537L12.1743 18.278Z" fill="#57ABFF"/>
</svg>
