<svg width="22" height="26" viewBox="0 0 22 26" fill="none" xmlns="http://www.w3.org/2000/svg">
<path d="M4.108 8.19767H6.13033V6.172C6.13033 5.60156 5.93478 5.11956 5.54367 4.726C5.15233 4.33245 4.67133 4.13567 4.10067 4.13567C3.53 4.13567 3.04867 4.33356 2.65667 4.72933C2.26444 5.12511 2.06833 5.606 2.06833 6.172C2.06833 6.738 2.26222 7.21711 2.65 7.60933C3.03778 8.00156 3.52378 8.19767 4.108 8.19767ZM9.69167 8.19767C10.2654 8.19767 10.7462 8.00089 11.134 7.60733C11.5218 7.214 11.7157 6.736 11.7157 6.17333C11.7157 5.61089 11.5201 5.13067 11.129 4.73267C10.7379 4.33467 10.257 4.13567 9.68633 4.13567C9.11567 4.13567 8.63422 4.33122 8.242 4.72233C7.84978 5.11322 7.65367 5.59467 7.65367 6.16667V8.19767H9.69167ZM10.2593 25.0173C9.55733 25.0173 8.89133 24.8782 8.26133 24.6C7.63111 24.3218 7.11056 23.9067 6.69967 23.3547L0 14.6493L0.560667 14.059C0.802445 13.795 1.09956 13.6299 1.452 13.5637C1.80422 13.4974 2.14711 13.5433 2.48067 13.7013L6.13033 15.5083V9.79367H4.108C3.08933 9.79367 2.22867 9.44178 1.526 8.738C0.823556 8.034 0.472333 7.17922 0.472333 6.17367C0.472333 5.16833 0.823556 4.31133 1.526 3.60267C2.22867 2.89378 3.08933 2.53933 4.108 2.53933C4.48156 2.53933 4.83822 2.59956 5.178 2.72C5.51778 2.84022 5.83522 3.009 6.13033 3.22633V0.794668C6.13033 0.579334 6.20833 0.393112 6.36433 0.236001C6.52056 0.0786672 6.70989 0 6.93233 0C7.15456 0 7.34378 0.0781121 7.5 0.234334C7.656 0.390557 7.734 0.575555 7.734 0.789333V3.15067C8.01422 2.96289 8.31767 2.81411 8.64433 2.70433C8.97078 2.59433 9.315 2.53933 9.677 2.53933C10.6866 2.53933 11.5448 2.89256 12.2517 3.599C12.9586 4.30522 13.312 5.16278 13.312 6.17167C13.312 7.18078 12.9602 8.03667 12.2567 8.73933C11.5529 9.44222 10.6986 9.79367 9.69367 9.79367H7.734V18.073L2.77867 15.635L8.03067 22.4073C8.29111 22.7624 8.61878 23.0201 9.01367 23.1803C9.40856 23.3408 9.82378 23.421 10.2593 23.421H16.4627C17.3496 23.421 18.1056 23.111 18.7307 22.491C19.356 21.871 19.6687 21.1108 19.6687 20.2103V15.0707C19.6687 14.5309 19.485 14.0777 19.1177 13.711C18.7501 13.3446 18.3031 13.1613 17.7767 13.1613H10.8347V11.565H17.772C18.7316 11.565 19.5536 11.9059 20.238 12.5877C20.9227 13.2692 21.265 14.0969 21.265 15.0707V20.2103C21.265 21.5517 20.7963 22.6881 19.859 23.6197C18.9217 24.5514 17.7896 25.0173 16.4627 25.0173H10.2593Z" fill="#57ABFF"/>
</svg>
