<svg width="15" height="15" viewBox="0 0 15 15" fill="none" xmlns="http://www.w3.org/2000/svg">
<g clip-path="url(#clip0_300_5373)">
<g clip-path="url(#clip1_300_5373)">
<g clip-path="url(#clip2_300_5373)">
<path d="M10.5312 0H4.46807C3.28336 0.00139224 2.14758 0.472684 1.30994 1.31047C0.472294 2.14826 0.00119304 3.28411 0 4.46882V10.5319C0.00139224 11.7166 0.472684 12.8524 1.31047 13.6901C2.14826 14.5277 3.28411 14.9988 4.46882 15H10.5319C11.7166 14.9986 12.8524 14.5273 13.6901 13.6895C14.5277 12.8517 14.9988 11.7159 15 10.5312V4.46807C14.9986 3.28336 14.5273 2.14758 13.6895 1.30994C12.8517 0.472294 11.7159 0.00119304 10.5312 0ZM13.4914 10.5312C13.4914 10.9199 13.4148 11.3048 13.266 11.664C13.1173 12.0231 12.8992 12.3495 12.6243 12.6243C12.3495 12.8992 12.0231 13.1173 11.664 13.266C11.3048 13.4148 10.9199 13.4914 10.5312 13.4914H4.46807C3.68311 13.4912 2.93037 13.1792 2.37539 12.6241C1.82041 12.069 1.50864 11.3161 1.50864 10.5312V4.46807C1.50884 3.68311 1.8208 2.93037 2.37592 2.37539C2.93104 1.82041 3.68386 1.50864 4.46882 1.50864H10.5319C11.3169 1.50884 12.0696 1.8208 12.6246 2.37592C13.1796 2.93104 13.4914 3.68386 13.4914 4.46882V10.5312Z" fill="#A7B8C6"/>
<path d="M7.50329 3.61719C6.47506 3.61878 5.48942 4.028 4.76242 4.75514C4.03542 5.48227 3.62639 6.468 3.625 7.49623C3.6262 8.52472 4.03524 9.51075 4.76242 10.238C5.4896 10.9654 6.47555 11.3746 7.50404 11.376C8.53266 11.3748 9.51881 10.9656 10.2461 10.2383C10.9735 9.51099 11.3826 8.52485 11.3838 7.49623C11.3822 6.46774 10.9728 5.48187 10.2453 4.75483C9.51789 4.02779 8.53178 3.61818 7.50329 3.61719ZM7.50329 9.86738C6.87462 9.86738 6.2717 9.61764 5.82717 9.1731C5.38263 8.72857 5.13289 8.12565 5.13289 7.49698C5.13289 6.86831 5.38263 6.26539 5.82717 5.82085C6.2717 5.37632 6.87462 5.12658 7.50329 5.12658C8.13196 5.12658 8.73488 5.37632 9.17942 5.82085C9.62395 6.26539 9.87369 6.86831 9.87369 7.49698C9.87369 8.12565 9.62395 8.72857 9.17942 9.1731C8.73488 9.61764 8.13196 9.86738 7.50329 9.86738Z" fill="#A7B8C6"/>
<path d="M11.3825 4.57751C11.8958 4.57751 12.3119 4.16141 12.3119 3.64813C12.3119 3.13485 11.8958 2.71875 11.3825 2.71875C10.8692 2.71875 10.4531 3.13485 10.4531 3.64813C10.4531 4.16141 10.8692 4.57751 11.3825 4.57751Z" fill="#A7B8C6"/>
</g>
</g>
</g>
<defs>
<clipPath id="clip0_300_5373">
<rect width="15" height="15" fill="white"/>
</clipPath>
<clipPath id="clip1_300_5373">
<rect width="15" height="15" fill="white"/>
</clipPath>
<clipPath id="clip2_300_5373">
<rect width="15" height="15" fill="white"/>
</clipPath>
</defs>
</svg>
