<svg width="15" height="10" viewBox="0 0 15 10" fill="none" xmlns="http://www.w3.org/2000/svg">
<g clip-path="url(#clip0_300_5386)">
<path fill-rule="evenodd" clip-rule="evenodd" d="M12.8275 0.28512C13.4146 0.442273 13.876 0.903629 14.0332 1.49071C14.3171 2.55373 14.3182 4.77295 14.3182 4.77295C14.3182 4.77295 14.3182 6.99218 14.0332 8.05521C13.876 8.64228 13.4146 9.10364 12.8275 9.26073C11.7645 9.54591 7.50004 9.54591 7.50004 9.54591C7.50004 9.54591 3.23561 9.54591 2.17258 9.26073C1.58551 9.10364 1.12416 8.64228 0.967005 8.05521C0.681885 6.99218 0.681885 4.77295 0.681885 4.77295C0.681885 4.77295 0.681885 2.55373 0.967005 1.49071C1.12416 0.903629 1.58551 0.442273 2.17258 0.28512C3.23561 0 7.50004 0 7.50004 0C7.50004 0 11.7645 0 12.8275 0.28512ZM10.2278 4.77297L5.45483 7.63672V1.90918L10.2278 4.77297Z" fill="#A7B8C6"/>
</g>
<defs>
<clipPath id="clip0_300_5386">
<rect width="13.6364" height="10" fill="white" transform="translate(0.681885)"/>
</clipPath>
</defs>
</svg>
