<svg preserveAspectRatio="none" width="100%" height="100%" overflow="visible" style="display: block;" viewBox="0 0 32 32" fill="none" xmlns="http://www.w3.org/2000/svg">
<g id="03 Problema / Instancia / Component 31">
<path id="03 Problema / Vetor / Decoracao 01" d="M5.33333 4L8 9.33333H12L9.33333 4H12L14.6667 9.33333H18.6667L16 4H18.6667L21.3333 9.33333H25.3333L22.6667 4H26.6667C27.4 4 28.0278 4.26111 28.55 4.78333C29.0722 5.30556 29.3333 5.93333 29.3333 6.66667V25.3333C29.3333 26.0667 29.0722 26.6944 28.55 27.2167C28.0278 27.7389 27.4 28 26.6667 28H5.33333C4.6 28 3.97222 27.7389 3.45 27.2167C2.92778 26.6944 2.66667 26.0667 2.66667 25.3333V6.66667C2.66667 5.93333 2.92778 5.30556 3.45 4.78333C3.97222 4.26111 4.6 4 5.33333 4ZM5.33333 12V25.3333H26.6667V12H5.33333ZM10.6667 24H21.3333V23.2667C21.3333 22.2889 20.8444 21.5 19.8667 20.9C18.8889 20.3 17.6 20 16 20C14.4 20 13.1111 20.3 12.1333 20.9C11.1556 21.5 10.6667 22.2889 10.6667 23.2667V24ZM17.8833 17.8833C18.4056 17.3611 18.6667 16.7333 18.6667 16C18.6667 15.2667 18.4056 14.6389 17.8833 14.1167C17.3611 13.5944 16.7333 13.3333 16 13.3333C15.2667 13.3333 14.6389 13.5944 14.1167 14.1167C13.5944 14.6389 13.3333 15.2667 13.3333 16C13.3333 16.7333 13.5944 17.3611 14.1167 17.8833C14.6389 18.4056 15.2667 18.6667 16 18.6667C16.7333 18.6667 17.3611 18.4056 17.8833 17.8833Z" fill="var(--fill-0, #57ABFF)"/>
</g>
</svg>
