<svg preserveAspectRatio="none" width="100%" height="100%" overflow="visible" style="display: block;" viewBox="0 0 32 32" fill="none" xmlns="http://www.w3.org/2000/svg">
<g id="03 Problema / Instancia / Component 31">
<path id="03 Problema / Vetor / Decoracao 01" d="M8 29.3333C6.88889 29.3333 5.94444 28.9444 5.16667 28.1667C4.38889 27.3889 4 26.4444 4 25.3333V21.3333H8V2.66667L10 4.66667L12 2.66667L14 4.66667L16 2.66667L18 4.66667L20 2.66667L22 4.66667L24 2.66667L26 4.66667L28 2.66667V25.3333C28 26.4444 27.6111 27.3889 26.8333 28.1667C26.0556 28.9444 25.1111 29.3333 24 29.3333H8ZM24 26.6667C24.3778 26.6667 24.6944 26.5389 24.95 26.2833C25.2056 26.0278 25.3333 25.7111 25.3333 25.3333V6.66667H10.6667V21.3333H22.6667V25.3333C22.6667 25.7111 22.7944 26.0278 23.05 26.2833C23.3056 26.5389 23.6222 26.6667 24 26.6667ZM12 12V9.33333H20V12H12ZM12 16V13.3333H20V16H12ZM22.6667 12C22.2889 12 21.9722 11.8722 21.7167 11.6167C21.4611 11.3611 21.3333 11.0444 21.3333 10.6667C21.3333 10.2889 21.4611 9.97222 21.7167 9.71667C21.9722 9.46111 22.2889 9.33333 22.6667 9.33333C23.0444 9.33333 23.3611 9.46111 23.6167 9.71667C23.8722 9.97222 24 10.2889 24 10.6667C24 11.0444 23.8722 11.3611 23.6167 11.6167C23.3611 11.8722 23.0444 12 22.6667 12ZM22.6667 16C22.2889 16 21.9722 15.8722 21.7167 15.6167C21.4611 15.3611 21.3333 15.0444 21.3333 14.6667C21.3333 14.2889 21.4611 13.9722 21.7167 13.7167C21.9722 13.4611 22.2889 13.3333 22.6667 13.3333C23.0444 13.3333 23.3611 13.4611 23.6167 13.7167C23.8722 13.9722 24 14.2889 24 14.6667C24 15.0444 23.8722 15.3611 23.6167 15.6167C23.3611 15.8722 23.0444 16 22.6667 16ZM8 26.6667H20V24H6.66667V25.3333C6.66667 25.7111 6.79444 26.0278 7.05 26.2833C7.30556 26.5389 7.62222 26.6667 8 26.6667Z" fill="var(--fill-0, #57ABFF)"/>
</g>
</svg>
