<svg preserveAspectRatio="none" width="100%" height="100%" overflow="visible" style="display: block;" viewBox="0 0 32 32" fill="none" xmlns="http://www.w3.org/2000/svg">
<g id="03 Problema / Instancia / Component 31">
<path id="03 Problema / Vetor / Decoracao 01" d="M14.6 12.2667L15.9333 8.4H16.0667L17.4 12.2667H14.6ZM16 20C13.7778 20 11.8889 19.2222 10.3333 17.6667C8.77778 16.1111 8 14.2222 8 12C8 9.77778 8.77778 7.88889 10.3333 6.33333C11.8889 4.77778 13.7778 4 16 4C18.2222 4 20.1111 4.77778 21.6667 6.33333C23.2222 7.88889 24 9.77778 24 12C24 14.2222 23.2222 16.1111 21.6667 17.6667C20.1111 19.2222 18.2222 20 16 20ZM11.6667 16H13.2667L14.1333 13.6H17.8667L18.7333 16H20.3333L16.8 6.66667H15.1333L11.6667 16ZM4 29.3333V22.6667H6.66667V29.3333H4ZM9.33333 29.3333V22.6667H12V29.3333H9.33333ZM14.6667 29.3333V22.6667H17.3333V29.3333H14.6667ZM20 29.3333V22.6667H28V29.3333H20Z" fill="var(--fill-0, #57ABFF)"/>
</g>
</svg>
