<svg preserveAspectRatio="none" width="100%" height="100%" overflow="visible" style="display: block;" viewBox="0 0 32 32" fill="none" xmlns="http://www.w3.org/2000/svg">
<g id="03 Problema / Instancia / Component 31">
<path id="03 Problema / Vetor / Decoracao 01" d="M5.33333 28C4.6 28 3.97222 27.7389 3.45 27.2167C2.92778 26.6944 2.66667 26.0667 2.66667 25.3333V10.6667C2.66667 9.93333 2.92778 9.30556 3.45 8.78333C3.97222 8.26111 4.6 8 5.33333 8H10.6667V5.33333C10.6667 4.6 10.9278 3.97222 11.45 3.45C11.9722 2.92778 12.6 2.66667 13.3333 2.66667H18.6667C19.4 2.66667 20.0278 2.92778 20.55 3.45C21.0722 3.97222 21.3333 4.6 21.3333 5.33333V8H26.6667C27.4 8 28.0278 8.26111 28.55 8.78333C29.0722 9.30556 29.3333 9.93333 29.3333 10.6667V25.3333C29.3333 26.0667 29.0722 26.6944 28.55 27.2167C28.0278 27.7389 27.4 28 26.6667 28H5.33333ZM5.33333 25.3333H26.6667V10.6667H5.33333V25.3333ZM13.3333 8H18.6667V5.33333H13.3333V8Z" fill="var(--fill-0, #57ABFF)"/>
</g>
</svg>
